<svg xmlns="http://www.w3.org/2000/svg" xml:space="preserve" viewBox="0 0 512 512">
  <path d="M366.2 367.7a189.8 189.8 0 0 1-32.7 27c16 11.8 24.2 31.7 28.2 46 8.5-9 13.5-19 15-29.8 2.2-17.6-5-33.8-10.5-43.2zM377.4 105.4a14.6 14.6 0 1 0 0 29.1 14.6 14.6 0 0 0 0-29zM424.9 217a158.1 158.1 0 0 1-79.3 21.5c-38.6 0-71.9 8-99 23.7C201 288.4 129 359.9 101.9 400a34.7 34.7 0 0 1-42.4 12.5 284 284 0 0 0-44-15 210 210 0 0 1 41.1 51c11.6 20.2 19.7 41.6 24.1 63.4 5-13.9 8.7-28.3 11.3-43.8 2.7-16 15.8-28 32-29.2 47.3-3.2 147.3-30.4 192.2-56.3 28-16.2 52.3-42.3 72-77.4a315.7 315.7 0 0 1 44-60.7l64.4-69.3-71.7 41.7zM279.5 331.2l-119.7 69a9.6 9.6 0 0 1-13.2-3.5 9.7 9.7 0 0 1 3.6-13.2l119.6-69a9.7 9.7 0 0 1 9.7 16.7zm48.3-50.4a9.7 9.7 0 1 1-9.7-16.8 9.7 9.7 0 0 1 9.7 16.8z"/>
  <path d="M276.4 161.1c-30.6 18.2-137.3 87.3-140.6 169 32.7-33.6 72-68 101-84.7a198 198 0 0 1 74.3-24.1L276.4 161zM453.3 0a23.5 23.5 0 1 0 0 47 23.5 23.5 0 0 0 0-47z"/>
</svg>
